<?xml version="1.0" encoding="utf-8"?>
<!-- Generator: Adobe Illustrator 24.1.2, SVG Export Plug-In . SVG Version: 6.00 Build 0)  -->
<svg version="1.1" id="Layer_1" xmlns="http://www.w3.org/2000/svg" xmlns:xlink="http://www.w3.org/1999/xlink" x="0px" y="0px"
	 viewBox="0 0 68 66" style="enable-background:new 0 0 68 66;" xml:space="preserve">
<style type="text/css">
	.st0{fill:#FFFFFF;}
</style>
<path class="st0" d="M57.3,31.6c-0.4-0.4-0.9-0.6-1.4-0.6h-0.9c-0.5,0-1,0.2-1.4,0.6l-3.6,3.6c-1.3,1.3-0.4,3.4,1.4,3.4h1.5
	c0.6,0,1.1,0.2,1.5,0.7l3.2,3.6c1.1,1.3,0.2,3.3-1.5,3.3H12c-1.7,0-2.6-2-1.5-3.3l3.2-3.6c0.4-0.4,0.9-0.7,1.5-0.7h2
	c1.8,0,2.7-2.1,1.4-3.4l-3.6-3.6c-0.4-0.4-0.9-0.6-1.4-0.6h-1.5c-0.5,0-1,0.2-1.4,0.6L0.6,41.8C0.2,42.2,0,42.7,0,43.2v14.4
	c0,4.2,3.4,7.6,7.5,7.6h52.9c4.2,0,7.6-3.4,7.6-7.6V43.2c0-0.5-0.2-1-0.6-1.4L57.3,31.6z"/>
<path class="st0" d="M29.2,19.9c0.1-0.7,0.4-1.4,0.7-2c0.3-0.6,0.8-1,1.3-1.4c0.5-0.3,1.2-0.5,2-0.5c0.5,0,1,0.1,1.4,0.3
	c0.5,0.2,0.9,0.5,1.2,0.8c0.3,0.3,0.6,0.7,0.8,1.2c0.2,0.4,0.3,0.9,0.3,1.4h4c0-1.1-0.2-2-0.6-2.9c-0.4-0.9-0.9-1.6-1.6-2.3
	c-0.7-0.6-1.5-1.1-2.4-1.5c-0.9-0.4-2-0.5-3.1-0.5c-1.5,0-2.7,0.2-3.8,0.8s-2,1.2-2.7,2.1c-0.7,0.9-1.3,1.9-1.6,3.1
	c-0.3,1.2-0.5,2.4-0.5,3.7v0.6c0,1.3,0.2,2.5,0.5,3.7s0.9,2.2,1.6,3s1.6,1.6,2.7,2c1.1,0.5,2.4,0.8,3.8,0.8c1.1,0,2-0.2,3-0.5
	s1.7-0.8,2.4-1.4c0.7-0.6,1.3-1.3,1.7-2.1c0.4-0.8,0.7-1.7,0.7-2.6h-4c0,0.5-0.1,0.9-0.3,1.3c-0.2,0.4-0.5,0.7-0.8,1
	c-0.3,0.3-0.7,0.5-1.2,0.7c-0.4,0.2-0.9,0.2-1.3,0.2c-0.8,0-1.5-0.2-2-0.5c-0.6-0.4-1-0.8-1.3-1.4c-0.3-0.6-0.6-1.2-0.7-2
	c-0.1-0.7-0.2-1.5-0.2-2.3v-0.6C29,21.4,29.1,20.7,29.2,19.9z M33.5,0C21.1,0,11,10.1,11,22.5S21.1,45,33.5,45S56,34.9,56,22.5
	S45.9,0,33.5,0z M33.5,40.5c-9.9,0-18-8.1-18-18s8.1-18,18-18s18,8.1,18,18S43.4,40.5,33.5,40.5z"/>
</svg>
