<?xml version="1.0" encoding="utf-8"?>
<!-- Generator: Adobe Illustrator 24.1.2, SVG Export Plug-In . SVG Version: 6.00 Build 0)  -->
<svg version="1.1" id="Layer_1" xmlns="http://www.w3.org/2000/svg" xmlns:xlink="http://www.w3.org/1999/xlink" x="0px" y="0px"
	 viewBox="0 0 74 76" style="enable-background:new 0 0 74 76;" xml:space="preserve">
<style type="text/css">
	.st0{fill:#FFFFFF;}
</style>
<path class="st0" d="M11.8,31.9c-2.2,0-4,1.8-4,4v20.7c0,2.2,1.8,4,4,4h3.7c2.2,0,4-1.8,4-4V35.9c0-2.2-1.8-4-4-4H11.8z M35.2,31.9
	c-2.2,0-4,1.8-4,4v20.7c0,2.2,1.8,4,4,4h3.7c2.2,0,4-1.8,4-4V35.9c0-2.2-1.8-4-4-4H35.2z M0,72c0,2.2,1.8,4,4,4h66c2.2,0,4-1.8,4-4
	v-4.3c0-2.2-1.8-4-4-4H4c-2.2,0-4,1.8-4,4V72z M58.5,31.9c-2.2,0-4,1.8-4,4v20.7c0,2.2,1.8,4,4,4h3.7c2.2,0,4-1.8,4-4V35.9
	c0-2.2-1.8-4-4-4H58.5z M38.9,1.1c-1.2-0.7-2.7-0.7-3.9,0l-33,18.3C0.8,20,0,21.4,0,22.8v1.8c0,2.2,1.8,4,4,4h66c2.2,0,4-1.8,4-4
	v-1.8c0-1.5-0.8-2.8-2.1-3.5L38.9,1.1z"/>
</svg>
