<?xml version="1.0" encoding="utf-8"?>
<!-- Generator: Adobe Illustrator 24.1.2, SVG Export Plug-In . SVG Version: 6.00 Build 0)  -->
<svg version="1.1" id="Layer_1" xmlns="http://www.w3.org/2000/svg" xmlns:xlink="http://www.w3.org/1999/xlink" x="0px" y="0px"
	 viewBox="0 0 72 72" style="enable-background:new 0 0 72 72;" xml:space="preserve">
<style type="text/css">
	.st0{fill:#FFFFFF;}
</style>
<path class="st0" d="M68,50c-5,0-9.8-0.8-14.3-2.3c-1.4-0.4-3-0.1-4.1,1l-7.3,7.3c-0.9,0.9-2.3,1.1-3.5,0.5
	C29.1,51,21,42.9,15.5,33.1c-0.6-1.1-0.4-2.5,0.5-3.5l7.3-7.3c1.1-1.1,1.4-2.6,1-4C22.8,13.8,22,9,22,4c0-2.2-1.8-4-4-4H4
	C1.8,0,0,1.8,0,4c0,37.6,30.4,68,68,68c2.2,0,4-1.8,4-4V54C72,51.8,70.2,50,68,50z M39,0c-1.7,0-3,1.3-3,3v29.8c0,2.7,3.2,4,5.1,2.1
	l6-6c0.6-0.6,1.3-0.9,2.1-0.9H69c1.7,0,3-1.3,3-3V3c0-1.7-1.3-3-3-3H39z"/>
</svg>
